# xmcd
#
# Track frame offsets: 
#        150
#        14344
#        28134
#        42934
#        59552
#        85693
#        99622
#        114805
#        129006
#        146286
#        161170
#        177133
#
# Disc length: 2599 seconds
#
# Revision: 0
# Processed by: cddbd v1.5.2PL0 Copyright (c) Steve Scherf et al.
# Submitted via: ExactAudioCopy v1.3
#
DISCID=910a250c
DTITLE=Shaggy Dogs - Bababoomba
DYEAR=2015
DGENRE=Blues Rock, Rock and Roll
TTITLE0=Fiesta Blues And Roll
TTITLE1=Don't Turn Back
TTITLE2=Change The World
TTITLE3=Inmates
TTITLE4=Simulation Blues
TTITLE5=Move On Down The Line
TTITLE6=Are You Ready
TTITLE7=Fairy Queen
TTITLE8=Alone
TTITLE9=Lee Dorsey
TTITLE10=Higher
TTITLE11=Sin City
EXTD=
EXTT0=
EXTT1=
EXTT2=
EXTT3=
EXTT4=
EXTT5=
EXTT6=
EXTT7=
EXTT8=
EXTT9=
EXTT10=
EXTT11=
PLAYORDER=
